@startuml

!include skinparam.iuml

header
Usage of ContentAttributes in EMS
endheader

title
Bamboo package approach
end title

left to right direction

node "EMS server" {
    node "File system" #Gainsboro {
        package "rp-content-attributes " #ffffff {
            [ContentAttributes] as CONTENTATTRIBUTES
        }
    }

    node "EMS Apache server" #LightSteelBlue {
        package EMS #ffffff {
            interface "HTTPS" as HTTPS_EMS
            HTTPS_EMS -- [EMS]

        }
    }

}

node "Public server" {
    node "Public Apache server" #Khaki {
        package Homepage #ffffff {
            interface "HTTPS" as HTTPS_HOMEPAGE
            [ContentAttributes] as CONTENTATTRIBUTES_HOMEPAGE
            HTTPS_HOMEPAGE -- [Homepage]
            Homepage ..> CONTENTATTRIBUTES_HOMEPAGE : use
        }
    }
}

node Bamboo {
    package rp-content-attributes {
        [ContentAttributes] as Bamboo_ContentAttributes
    }
}

CONTENTATTRIBUTES <.. Bamboo_ContentAttributes : Deploy component to EMS server\nor Create rpm package for\nmanual deployment to EMS server\n

[EMS] ..> CONTENTATTRIBUTES : Direct usage of\nPHP classes\n in EMS\n
CONTENTATTRIBUTES .[#green,bold]. CONTENTATTRIBUTES_HOMEPAGE : \n\n\n\n\n\nthe same version\nof component\nin both products

@enduml